<svg xmlns="http://www.w3.org/2000/svg" viewBox="0 0 1414 2000" role="img" aria-label="Relatório: como medir campanhas de interesse público"><defs><clipPath id="folha"><rect width="1414" height="2000"/></clipPath></defs><rect width="1414" height="2000" fill="#bee6d7"/><g clip-path="url(#folha)"><path d="M2135.9 380 C2163.5 533.8 2128.5 743.6 2050.4 881 C1972.4 1018.5 1805.3 1131.7 1667.5 1204.5 C1529.8 1277.3 1369.1 1300 1224 1317.8 C1079 1335.6 935.2 1339.6 797.4 1311.4 C659.6 1283.2 510.3 1232.1 397.2 1148.4 C284.1 1064.8 185.1 937.4 118.6 809.3 C52 681.2 12.7 530.1 -1.9 380 C-16.4 229.9 -19 57 31.4 -91.3 C81.8 -239.6 176.9 -414.9 300.4 -509.8 C423.9 -604.8 620.1 -659.9 772.4 -660.9 C924.8 -661.9 1085.4 -577.2 1214.5 -515.8 C1343.5 -454.5 1434.9 -372.1 1546.7 -293 C1658.5 -214 1787.2 -153.7 1885.4 -41.6 C1983.6 70.6 2108.4 226.2 2135.9 380 Z" fill="none" stroke="#000" stroke-width="16"/><path d="M2026.3 389 C2050.8 525.9 2019.7 712.7 1950.2 835 C1880.7 957.4 1732 1058.2 1609.3 1123 C1486.7 1187.8 1343.6 1207.9 1214.5 1223.8 C1085.4 1239.6 957.4 1243.2 834.8 1218.1 C712.1 1193 579.2 1147.5 478.5 1073.1 C377.8 998.6 289.6 885.2 230.4 771.2 C171.2 657.2 136.2 522.6 123.2 389 C110.3 255.4 108 101.5 152.9 -30.5 C197.7 -162.5 282.3 -318.6 392.3 -403.1 C502.2 -487.7 676.9 -536.7 812.5 -537.6 C948.1 -538.5 1091.1 -463.1 1206 -408.5 C1320.9 -353.9 1402.3 -280.5 1501.8 -210.1 C1601.3 -139.8 1715.8 -86.1 1803.2 13.7 C1890.7 113.6 2001.8 252.1 2026.3 389 Z" fill="none" stroke="#000" stroke-width="16"/><path d="M1916.7 398 C1938.1 518 1910.9 681.8 1849.9 789 C1789 896.3 1658.6 984.7 1551.1 1041.5 C1443.7 1098.3 1318.2 1115.9 1205 1129.8 C1091.9 1143.7 979.6 1146.9 872.1 1124.8 C764.6 1102.8 648.1 1063 559.8 997.7 C471.5 932.4 394.2 833 342.3 733 C290.4 633.1 259.7 515.1 248.4 398 C237 280.9 235 146 274.3 30.2 C313.6 -85.5 387.8 -222.3 484.2 -296.4 C580.6 -370.5 733.7 -413.5 852.6 -414.3 C971.5 -415.1 1096.9 -349 1197.6 -301.1 C1298.3 -253.3 1369.6 -188.9 1456.9 -127.2 C1544.1 -65.5 1644.5 -18.5 1721.1 69 C1797.8 156.6 1895.2 278 1916.7 398 Z" fill="none" stroke="#000" stroke-width="16"/><path d="M1807 407 C1825.5 510.1 1802 650.8 1749.7 743 C1697.3 835.1 1585.3 911.1 1492.9 959.9 C1400.6 1008.7 1292.8 1023.9 1195.5 1035.9 C1098.3 1047.8 1001.9 1050.5 909.4 1031.6 C817 1012.6 716.9 978.4 641.1 922.3 C565.2 866.2 498.8 780.8 454.2 694.9 C409.6 609 383.2 507.7 373.5 407 C363.7 306.3 362 190.4 395.8 91 C429.5 -8.5 493.3 -126.1 576.1 -189.7 C659 -253.4 790.5 -290.4 892.7 -291 C994.8 -291.7 1102.6 -234.9 1189.1 -193.7 C1275.7 -152.6 1336.9 -97.3 1411.9 -44.3 C1486.9 8.7 1573.2 49.1 1639 124.3 C1704.9 199.5 1788.6 303.9 1807 407 Z" fill="none" stroke="#000" stroke-width="16"/><path d="M1697.4 416 C1712.8 502.2 1693.2 619.9 1649.5 697 C1605.7 774 1512 837.6 1434.7 878.4 C1357.5 919.2 1267.4 931.9 1186 941.9 C1104.7 951.9 1024.1 954.1 946.8 938.3 C869.5 922.5 785.8 893.9 722.3 846.9 C658.9 800 603.4 728.6 566.1 656.7 C528.8 584.9 506.7 500.2 498.6 416 C490.4 331.8 489 234.9 517.2 151.7 C545.5 68.6 598.8 -29.8 668.1 -83 C737.3 -136.3 847.3 -167.2 932.8 -167.7 C1018.2 -168.3 1108.3 -120.8 1180.7 -86.4 C1253 -52 1304.3 -5.8 1367 38.6 C1429.7 82.9 1501.8 116.7 1556.9 179.6 C1612 242.5 1682 329.8 1697.4 416 Z" fill="none" stroke="#000" stroke-width="16"/><path d="M1587.8 425 C1600.2 494.3 1584.4 589 1549.2 651 C1514 712.9 1438.7 764 1376.5 796.8 C1314.4 829.7 1241.9 839.9 1176.5 847.9 C1111.1 855.9 1046.3 857.8 984.1 845 C922 832.3 854.7 809.3 803.6 771.5 C752.6 733.8 708 676.4 678 618.6 C648 560.8 630.2 492.7 623.7 425 C617.1 357.3 616 279.4 638.7 212.5 C661.4 145.6 704.3 66.5 760 23.7 C815.7 -19.1 904.1 -44 972.9 -44.4 C1041.6 -44.9 1114 -6.7 1172.2 21 C1230.4 48.6 1271.6 85.8 1322.1 121.5 C1372.5 157.1 1430.5 184.3 1474.8 234.9 C1519.1 285.5 1575.4 355.7 1587.8 425 Z" fill="none" stroke="#000" stroke-width="16"/><path d="M1478.1 434 C1487.5 486.5 1475.6 558.1 1449 604.9 C1422.3 651.8 1365.3 690.5 1318.3 715.3 C1271.3 740.1 1216.5 747.9 1167 753.9 C1117.5 760 1068.5 761.4 1021.5 751.8 C974.5 742.1 923.5 724.7 884.9 696.2 C846.3 667.6 812.6 624.2 789.9 580.5 C767.2 536.8 753.7 485.2 748.8 434 C743.8 382.8 742.9 323.8 760.1 273.2 C777.3 222.6 809.8 162.8 851.9 130.4 C894 98 961 79.2 1012.9 78.9 C1064.9 78.5 1119.7 107.4 1163.8 128.4 C1207.8 149.3 1239 177.4 1277.1 204.4 C1315.3 231.3 1359.1 251.9 1392.7 290.2 C1426.2 328.4 1468.8 381.5 1478.1 434 Z" fill="none" stroke="#000" stroke-width="16"/><path d="M1368.5 443 C1374.9 478.6 1366.8 527.1 1348.7 558.9 C1330.7 590.7 1292 616.9 1260.1 633.8 C1228.3 650.6 1191.1 655.9 1157.5 660 C1124 664.1 1090.7 665 1058.8 658.5 C1026.9 652 992.4 640.2 966.2 620.8 C940 601.4 917.1 572 901.7 542.3 C886.4 512.7 877.2 477.7 873.9 443 C870.5 408.3 869.9 368.3 881.6 334 C893.2 299.6 915.2 259.1 943.8 237.1 C972.4 215.1 1017.8 202.4 1053 202.2 C1088.3 201.9 1125.4 221.5 1155.3 235.7 C1185.2 249.9 1206.3 269 1232.2 287.3 C1258.1 305.6 1287.8 319.5 1310.5 345.5 C1333.3 371.4 1362.1 407.4 1368.5 443 Z" fill="none" stroke="#000" stroke-width="16"/><path d="M1258.9 452 C1262.2 470.7 1258 496.2 1248.5 512.9 C1239 529.6 1218.7 543.4 1201.9 552.2 C1185.2 561.1 1165.7 563.8 1148 566 C1130.4 568.2 1112.9 568.7 1096.2 565.2 C1079.4 561.8 1061.3 555.6 1047.5 545.4 C1033.7 535.2 1021.7 519.8 1013.6 504.2 C1005.5 488.6 1000.8 470.2 999 452 C997.2 433.8 996.9 412.7 1003 394.7 C1009.2 376.7 1020.7 355.4 1035.7 343.8 C1050.7 332.3 1074.6 325.6 1093.1 325.5 C1111.6 325.3 1131.2 335.6 1146.9 343.1 C1162.5 350.5 1173.7 360.6 1187.2 370.2 C1200.8 379.8 1216.5 387.1 1228.4 400.8 C1240.4 414.4 1255.5 433.3 1258.9 452 Z" fill="none" stroke="#000" stroke-width="16"/><path d="M1202.2 461 C1203.9 470 1201.8 482.4 1197.2 490.5 C1192.6 498.6 1182.8 505.2 1174.7 509.5 C1166.6 513.8 1157.1 515.1 1148.6 516.2 C1140.1 517.2 1131.6 517.4 1123.5 515.8 C1115.4 514.1 1106.6 511.1 1100 506.2 C1093.3 501.3 1087.5 493.8 1083.6 486.3 C1079.6 478.7 1077.3 469.8 1076.5 461 C1075.6 452.2 1075.5 442 1078.4 433.3 C1081.4 424.6 1087 414.2 1094.3 408.7 C1101.5 403.1 1113.1 399.8 1122 399.8 C1131 399.7 1140.4 404.7 1148 408.3 C1155.6 411.9 1161 416.8 1167.6 421.4 C1174.1 426.1 1181.7 429.6 1187.5 436.2 C1193.3 442.8 1200.6 452 1202.2 461 Z" fill="#000"/></g><g fill="#000"><text x="120" y="1420" font-family="'Times New Roman', Times, Georgia, serif" font-size="112" textLength="449.1" lengthAdjust="spacingAndGlyphs">Relatório:</text><text x="120" y="1538" font-family="'Times New Roman', Times, Georgia, serif" font-size="112" font-weight="bold" textLength="1139.6" lengthAdjust="spacingAndGlyphs">como medir campanhas</text><text x="120" y="1656" font-family="'Times New Roman', Times, Georgia, serif" font-size="112" font-weight="bold" textLength="940.8" lengthAdjust="spacingAndGlyphs">de interesse público</text><g transform="translate(120 1820) scale(0.8695652173913043)"><path d="M87.3 46 C88.7 51.5 87.6 59.7 84.7 64.6 C81.8 69.6 75 73.5 69.7 75.8 C64.5 78.1 58.6 78.1 53.4 78.4 C48.2 78.7 43.5 78.7 38.8 77.7 C34 76.6 29 75.1 25 72.3 C21.1 69.5 17.6 65.3 15.1 60.9 C12.6 56.5 10.9 51.4 10.1 46 C9.3 40.6 8.6 34.2 10.2 28.8 C11.8 23.3 15.3 16.5 19.8 13.2 C24.4 9.8 32 8.3 37.5 8.7 C43 9.2 48.5 13.4 52.8 16 C57.2 18.6 59.5 21.6 63.4 24.2 C67.3 26.7 72.2 27.8 76.2 31.5 C80.1 35.1 85.9 40.5 87.3 46 Z" fill="none" stroke="#000" stroke-width="9"/><path d="M73.2 47 C74.1 50.4 73.4 55.4 71.6 58.4 C69.9 61.4 65.7 63.8 62.5 65.2 C59.3 66.6 55.7 66.6 52.5 66.8 C49.4 67 46.5 67 43.6 66.3 C40.7 65.7 37.6 64.8 35.2 63.1 C32.8 61.4 30.6 58.8 29.1 56.1 C27.6 53.4 26.6 50.3 26.1 47 C25.6 43.7 25.1 39.8 26.1 36.5 C27.1 33.1 29.2 29 32 26.9 C34.8 24.9 39.4 23.9 42.8 24.2 C46.2 24.5 49.5 27.1 52.2 28.7 C54.8 30.2 56.3 32.1 58.6 33.7 C61 35.2 64 35.9 66.4 38.1 C68.9 40.3 72.4 43.6 73.2 47 Z" fill="none" stroke="#000" stroke-width="9"/><path d="M60.3 48 C60.7 49.4 60.4 51.4 59.7 52.7 C58.9 53.9 57.2 54.9 55.9 55.4 C54.6 56 53.1 56 51.8 56.1 C50.6 56.2 49.4 56.2 48.2 55.9 C47 55.7 45.7 55.3 44.8 54.6 C43.8 53.9 42.9 52.8 42.3 51.7 C41.6 50.6 41.2 49.3 41 48 C40.8 46.7 40.7 45.1 41.1 43.7 C41.5 42.3 42.3 40.6 43.5 39.8 C44.6 39 46.5 38.6 47.9 38.7 C49.3 38.8 50.6 39.9 51.7 40.5 C52.8 41.1 53.4 41.9 54.4 42.5 C55.3 43.2 56.5 43.5 57.5 44.4 C58.5 45.3 60 46.6 60.3 48 Z" fill="#000"/></g><text x="236" y="1872" font-family="ui-monospace, Menlo, Consolas, 'Courier New', monospace" font-size="34" textLength="601.8" lengthAdjust="spacing">OBSERVATÓRIO CLIMA URBANO</text></g></svg>
